<svg width="166" height="52" viewBox="0 0 166 52" fill="none" xmlns="http://www.w3.org/2000/svg">
<g clip-path="url(#clip0_1827_4797)">
<path d="M64.4179 47.1108C64.6115 47.377 64.8741 47.5841 65.1768 47.7093C65.47 47.8321 65.7844 47.8952 66.1018 47.8948H70.4955C71.6941 47.9159 72.8862 47.713 74.0117 47.2964C75.0504 46.9065 75.9931 46.294 76.7748 45.501C77.5593 44.7088 78.1659 43.7557 78.5536 42.7062C78.9653 41.5451 79.1661 40.3186 79.1465 39.0855C79.1618 37.7746 78.9615 36.4702 78.5536 35.2255C78.1957 34.1303 77.6048 33.1273 76.8222 32.2871C76.0391 31.4602 75.0829 30.8202 74.0235 30.4139C72.8151 29.9549 71.5314 29.7315 70.2405 29.7556H66.0425C65.7859 29.7471 65.5302 29.791 65.2908 29.8846C65.0514 29.9782 64.8332 30.1195 64.6491 30.3002C64.4646 30.4852 64.3198 30.7067 64.2239 30.9507C64.128 31.1947 64.083 31.4561 64.0917 31.7185V45.9977C64.0736 46.3943 64.1862 46.7857 64.4119 47.1108H64.4179ZM70.199 33.2805C71.1879 33.2417 72.1671 33.4888 73.0214 33.9927C73.7666 34.4677 74.3452 35.1669 74.6758 35.9915C75.0454 36.9192 75.2268 37.9123 75.2094 38.912C75.2293 39.8778 75.0517 40.8373 74.6876 41.7307C74.3644 42.5242 73.813 43.2017 73.1045 43.6757C72.308 44.1725 71.3838 44.4203 70.4481 44.3879H67.8866V33.2805H70.199ZM84.5364 34.6091C83.7387 34.9851 83.0278 35.5253 82.4492 36.195C81.864 36.8707 81.4077 37.6498 81.1032 38.4931C80.7843 39.3419 80.6216 40.2424 80.623 41.1502C80.6106 42.381 80.8933 43.5965 81.4471 44.6931C81.9689 45.7507 82.769 46.6431 83.7596 47.2724C84.772 47.9114 85.9455 48.2418 87.1394 48.224C88.0567 48.2331 88.9651 48.0412 89.8017 47.6614C90.5894 47.3013 91.2942 46.7796 91.8711 46.1294C92.4479 45.4675 92.8965 44.7022 93.1933 43.8732C93.5135 43.002 93.6742 42.0794 93.6677 41.1502C93.6742 40.2308 93.5134 39.318 93.1933 38.4572C92.8857 37.6263 92.4295 36.8595 91.8473 36.195C91.2683 35.5299 90.5599 34.9921 89.7661 34.6151C88.9449 34.2384 88.0533 34.0435 87.1513 34.0435C86.2492 34.0435 85.3576 34.2384 84.5364 34.6151V34.6091ZM88.7344 37.9485C89.1771 38.3262 89.5126 38.8156 89.7068 39.3668C89.9199 39.9409 90.0283 40.5492 90.027 41.1622C90.0309 41.776 89.9203 42.3851 89.7009 42.9576C89.5056 43.4998 89.1698 43.9793 88.7285 44.346C88.2767 44.7048 87.714 44.8913 87.1394 44.8726C86.5705 44.8896 86.0139 44.703 85.5681 44.346C85.125 43.9796 84.7872 43.5002 84.5897 42.9576C84.3733 42.3842 84.2627 41.7757 84.2636 41.1622C84.2631 40.5492 84.3715 39.9411 84.5838 39.3668C84.7824 38.8148 85.1219 38.3255 85.5681 37.9485C86.0224 37.5971 86.5789 37.4067 87.1513 37.4067C87.7236 37.4067 88.2801 37.5971 88.7344 37.9485ZM96.1521 47.5238C96.316 47.7091 96.5185 47.8557 96.745 47.9529C96.9715 48.0501 97.2165 48.0957 97.4625 48.0863C97.7918 48.0917 98.1162 48.0047 98.3994 47.835C98.6812 47.6601 98.9091 47.4093 99.0575 47.1108C99.2148 46.7785 99.2939 46.4139 99.2888 46.0456V39.6421C99.2811 39.1959 99.3743 38.7538 99.5615 38.3494C99.739 37.9815 100.017 37.6722 100.362 37.4577C100.74 37.2311 101.174 37.117 101.613 37.1286C101.927 37.1148 102.241 37.1644 102.537 37.2743C102.832 37.3843 103.102 37.5524 103.333 37.7689C103.564 38.0186 103.742 38.3138 103.855 38.6362C103.969 38.9585 104.015 39.301 103.991 39.6421V46.0456C103.968 46.5849 104.148 47.113 104.495 47.5238C104.659 47.7091 104.861 47.8557 105.088 47.9529C105.314 48.0501 105.559 48.0957 105.805 48.0863C106.135 48.0917 106.459 48.0047 106.742 47.835C107.024 47.6601 107.252 47.4093 107.4 47.1108C107.557 46.7785 107.637 46.4139 107.631 46.0456V38.9658C107.656 38.0422 107.435 37.1288 106.991 36.3207C106.577 35.5863 105.959 34.991 105.212 34.6091C104.416 34.2051 103.536 33.9999 102.645 34.0106C101.02 34.0106 99.8521 34.5113 99.1405 35.5128C99.0934 35.1254 98.9027 34.7705 98.6069 34.5193C98.278 34.2696 97.8736 34.1427 97.4625 34.1602C97.2165 34.1509 96.9715 34.1964 96.745 34.2937C96.5185 34.3909 96.316 34.5374 96.1521 34.7228C95.8041 35.133 95.6239 35.6615 95.6481 36.201V45.9917C95.6251 46.531 95.8051 47.0592 96.1521 47.4699V47.5238ZM122.289 34.8784C122.091 34.4355 121.605 34.2141 120.83 34.2141C120.396 34.1994 119.972 34.3512 119.644 34.639C119.478 34.7743 119.339 34.942 119.237 35.1322C119.135 35.3223 119.072 35.531 119.052 35.7461C118.664 35.1981 118.141 34.7626 117.534 34.4834C116.921 34.2042 116.255 34.0613 115.583 34.0645C114.503 34.0581 113.448 34.3861 112.559 35.0041C111.618 35.6542 110.866 36.5442 110.377 37.5834C109.832 38.6997 109.556 39.9299 109.57 41.1742C109.55 42.4336 109.818 43.6808 110.353 44.8188C110.834 45.8438 111.584 46.7154 112.523 47.3383C113.43 47.943 114.496 48.2599 115.583 48.2479C116.252 48.2463 116.911 48.0914 117.512 47.7949C118.113 47.4984 118.639 47.0681 119.052 46.5363C119.139 46.9713 119.344 47.3733 119.644 47.6973C119.959 47.973 120.368 48.1128 120.783 48.0863C121.56 48.0863 122.046 47.8649 122.242 47.428C122.458 46.8785 122.559 46.2895 122.538 45.6985V36.572C122.559 35.9791 122.458 35.3882 122.242 34.8365L122.289 34.8784ZM113.573 39.3848C113.769 38.8317 114.109 38.3419 114.557 37.9664C115.002 37.606 115.558 37.4153 116.128 37.4278C116.689 37.4144 117.235 37.6081 117.664 37.9724C118.105 38.3505 118.438 38.8399 118.631 39.3907C118.839 39.966 118.945 40.5737 118.945 41.1861C118.962 42.1055 118.703 43.0085 118.204 43.7775C117.983 44.129 117.676 44.4165 117.312 44.6117C116.948 44.8069 116.54 44.903 116.128 44.8906C115.559 44.9075 115.003 44.721 114.557 44.3639C114.114 43.9976 113.776 43.5182 113.579 42.9755C113.362 42.4022 113.252 41.7937 113.253 41.1801C113.252 40.5672 113.36 39.9591 113.573 39.3848ZM126.617 47.5178C126.78 47.7052 126.982 47.8536 127.209 47.9519C127.436 48.0503 127.681 48.0962 127.928 48.0863C128.258 48.0943 128.584 48.0067 128.867 47.8339C129.149 47.661 129.377 47.4101 129.523 47.1108C129.681 46.7766 129.76 46.41 129.754 46.0396V37.5535H130.792C131.242 37.5707 131.685 37.4289 132.043 37.1525C132.21 37.0044 132.342 36.8195 132.427 36.6119C132.512 36.4044 132.549 36.1798 132.535 35.9556C132.551 35.7306 132.515 35.5048 132.428 35.2968C132.342 35.0888 132.208 34.9044 132.037 34.7587C131.679 34.487 131.239 34.3494 130.792 34.3697H129.754V32.1434C129.759 31.7751 129.68 31.4106 129.523 31.0782C129.376 30.7798 129.148 30.5297 128.865 30.357C128.583 30.1844 128.258 30.0961 127.928 30.1027C127.681 30.0928 127.436 30.1387 127.209 30.2371C126.982 30.3355 126.78 30.4838 126.617 30.6712C126.269 31.079 126.089 31.6057 126.113 32.1434V34.3398H125.301C125.091 34.3332 124.882 34.3699 124.686 34.4478C124.49 34.5256 124.312 34.6429 124.163 34.7924C124.014 34.9419 123.896 35.1206 123.818 35.3175C123.739 35.5144 123.701 35.7254 123.706 35.9377C123.692 36.153 123.724 36.3688 123.799 36.5708C123.874 36.7727 123.991 36.9563 124.142 37.1091C124.293 37.262 124.474 37.3806 124.674 37.4573C124.874 37.5339 125.088 37.5667 125.301 37.5535H126.113V46.0157C126.088 46.5553 126.268 47.0843 126.617 47.4939V47.5178ZM133.94 47.5178C134.105 47.704 134.308 47.8509 134.536 47.9482C134.764 48.0455 135.01 48.0906 135.257 48.0804C135.586 48.0857 135.91 47.9987 136.193 47.829C136.475 47.655 136.701 47.4038 136.846 47.1049C137.009 46.7743 137.09 46.4088 137.083 46.0396V36.2309C137.091 35.8616 137.009 35.496 136.846 35.1656C136.703 34.8671 136.479 34.6159 136.199 34.4415C135.914 34.2707 135.588 34.1837 135.257 34.1901C135.01 34.1799 134.764 34.225 134.536 34.3223C134.308 34.4196 134.105 34.5666 133.94 34.7527C133.596 35.165 133.419 35.6926 133.442 36.2309V46.0217C133.42 46.5598 133.598 47.087 133.94 47.4999V47.5178ZM133.834 29.3187C133.637 29.4945 133.48 29.71 133.371 29.9513C133.263 30.1926 133.206 30.4542 133.205 30.7191C133.206 30.9936 133.263 31.2651 133.371 31.5171C133.479 31.769 133.636 31.9964 133.834 32.1853C134.015 32.388 134.236 32.55 134.483 32.6609C134.731 32.7718 134.998 32.8291 135.268 32.8291C135.539 32.8291 135.806 32.7718 136.054 32.6609C136.301 32.55 136.522 32.388 136.703 32.1853C136.896 31.9908 137.048 31.7592 137.15 31.5042C137.251 31.2492 137.301 30.976 137.296 30.7011C137.295 30.3535 137.196 30.0133 137.012 29.7197C136.827 29.4108 136.571 29.152 136.265 28.9656C135.881 28.7339 135.431 28.6409 134.988 28.7018C134.545 28.7627 134.136 28.9739 133.828 29.3008L133.834 29.3187ZM142.906 34.627C142.108 35.003 141.397 35.5432 140.818 36.2129C140.233 36.8898 139.775 37.6685 139.467 38.511C139.1 39.5133 138.942 40.5811 139.002 41.6478C139.062 42.7145 139.339 43.7572 139.816 44.711C140.338 45.7687 141.138 46.661 142.129 47.2904C143.141 47.9293 144.315 48.2597 145.509 48.2419C146.426 48.2505 147.334 48.0586 148.171 47.6794C148.959 47.3193 149.663 46.7975 150.24 46.1473C150.813 45.4824 151.261 44.7179 151.563 43.8912C151.88 43.0194 152.041 42.0971 152.037 41.1682C152.041 40.249 151.88 39.3367 151.563 38.4751C151.253 37.6453 150.797 36.8789 150.217 36.2129C149.635 35.5477 148.925 35.01 148.129 34.633C147.309 34.2565 146.419 34.0617 145.517 34.0617C144.616 34.0617 143.726 34.2565 142.906 34.633V34.627ZM147.104 37.9664C147.546 38.3441 147.882 38.8336 148.076 39.3848C148.289 39.9589 148.398 40.5671 148.396 41.1801C148.4 41.794 148.289 42.403 148.07 42.9755C147.873 43.5166 147.537 43.9955 147.098 44.3639C146.646 44.7227 146.083 44.9092 145.509 44.8906C144.94 44.9086 144.383 44.7219 143.937 44.3639C143.494 43.9976 143.156 43.5182 142.959 42.9755C142.742 42.4022 142.632 41.7937 142.633 41.1801C142.632 40.5672 142.741 39.9591 142.953 39.3848C143.147 38.8304 143.487 38.34 143.937 37.9664C144.392 37.6151 144.948 37.4246 145.52 37.4246C146.093 37.4246 146.649 37.6151 147.104 37.9664ZM154.515 47.5417C154.68 47.7272 154.884 47.8738 155.111 47.971C155.339 48.0682 155.585 48.1137 155.832 48.1043C156.162 48.1123 156.488 48.0247 156.77 47.8518C157.053 47.679 157.281 47.4281 157.427 47.1288C157.584 46.7964 157.663 46.4319 157.658 46.0635V39.6601C157.647 39.2136 157.741 38.7708 157.931 38.3674C158.105 37.9969 158.383 37.6867 158.731 37.4757C159.107 37.2499 159.539 37.1358 159.976 37.1465C160.292 37.132 160.607 37.1811 160.903 37.2911C161.199 37.4011 161.471 37.5696 161.702 37.7869C161.933 38.0365 162.111 38.3318 162.225 38.6541C162.338 38.9765 162.384 39.3189 162.36 39.6601V46.0635C162.338 46.6017 162.515 47.1289 162.858 47.5417C163.023 47.7272 163.227 47.8738 163.454 47.971C163.682 48.0682 163.928 48.1137 164.174 48.1043C164.504 48.1097 164.828 48.0227 165.111 47.8529C165.392 47.6789 165.619 47.4278 165.763 47.1288C165.927 46.7983 166.008 46.4328 166.001 46.0635V38.9658C166.025 38.0422 165.804 37.1288 165.36 36.3207C164.947 35.5863 164.328 34.991 163.581 34.6091C162.785 34.2058 161.905 34.0006 161.014 34.0106C159.385 34.0106 158.217 34.5113 157.51 35.5128C157.463 35.1254 157.272 34.7705 156.976 34.5193C156.647 34.2696 156.243 34.1427 155.832 34.1602C155.585 34.1508 155.339 34.1963 155.111 34.2935C154.884 34.3908 154.68 34.5373 154.515 34.7228C154.172 35.135 153.994 35.6626 154.017 36.201V45.9917C153.995 46.5299 154.173 47.0571 154.515 47.4699V47.5417Z" fill="#DB3C8E"/>
<path d="M67.8747 19.372C67.0192 18.1501 66.5858 16.678 66.6414 15.1828C66.6316 14.1807 66.817 13.1864 67.1869 12.2564C67.521 11.4055 68.0836 10.6656 68.8115 10.1199C69.5754 9.59731 70.4769 9.318 71.3997 9.318C72.3225 9.318 73.224 9.59731 73.9879 10.1199C74.7158 10.6656 75.2785 11.4055 75.6126 12.2564C75.9824 13.1864 76.1678 14.1807 76.1581 15.1828C76.1733 15.9374 76.0855 16.6906 75.8972 17.421C75.7144 18.0972 75.411 18.734 75.0018 19.3002C74.6077 19.8433 74.0916 20.2843 73.4958 20.5869C72.8542 20.9045 72.1467 21.0625 71.4323 21.0477C70.7522 21.085 70.0735 20.9508 69.4576 20.6572C68.8417 20.3636 68.3079 19.9199 67.9043 19.366L67.8747 19.372ZM74.901 23.8724C75.9569 23.4082 76.9044 22.7252 77.6819 21.8676C78.4619 20.9963 79.0661 19.9799 79.4608 18.8753C79.8688 17.6967 80.0695 16.4551 80.0537 15.2067C80.0606 13.9608 79.8437 12.724 79.4133 11.5562C79.0131 10.4542 78.4095 9.43883 77.6345 8.56388C76.8405 7.68986 75.8732 6.99416 74.7955 6.52195C73.7178 6.04974 72.5538 5.81158 71.379 5.82293C70.1734 5.80794 68.978 6.0464 67.8687 6.52313C66.8221 6.98343 65.8828 7.6603 65.1116 8.51C64.3314 9.38113 63.7271 10.3976 63.3327 11.5023C62.9089 12.6881 62.6961 13.9402 62.7042 15.2008C62.68 16.8635 63.0586 18.507 63.8071 19.9884C64.5124 21.4033 65.5985 22.5889 66.9409 23.4093C68.2833 24.2296 69.8277 24.6515 71.3967 24.6265C72.6012 24.6376 73.7947 24.395 74.901 23.9143V23.8724ZM82.6093 23.8724C82.7739 24.0586 82.9773 24.2055 83.2049 24.3028C83.4325 24.4001 83.6786 24.4452 83.9256 24.435C84.2549 24.4403 84.5792 24.3533 84.8624 24.1836C85.1435 24.0096 85.3698 23.7584 85.5147 23.4595C85.6783 23.1291 85.7597 22.7635 85.7519 22.3942V16.7627C85.7326 16.4935 85.772 16.2232 85.8673 15.9709C85.9625 15.7187 86.1113 15.4905 86.3033 15.3025C86.8026 14.8963 87.3554 14.5619 87.9458 14.3091L89.0842 13.8483C89.3675 13.7411 89.6259 13.576 89.8432 13.3635C90.0415 13.1344 90.1417 12.8352 90.1218 12.5316C90.1391 12.2641 90.1005 11.9959 90.0086 11.7443C89.9167 11.4928 89.7735 11.2636 89.5882 11.0714C89.4261 10.9086 89.2336 10.7799 89.022 10.6925C88.8103 10.6052 88.5836 10.5611 88.3549 10.5627C87.8586 10.5467 87.3677 10.6711 86.9377 10.9218C86.4805 11.2372 86.0929 11.6448 85.7993 12.1187H85.7519C85.7519 11.0954 85.1589 10.5867 83.973 10.5867C83.4942 10.5822 83.0302 10.7546 82.6686 11.0714C82.4805 11.241 82.3327 11.4512 82.2362 11.6864C82.1397 11.9216 82.097 12.1758 82.1112 12.4299V22.4182C82.0877 22.9565 82.2655 23.4841 82.6093 23.8964V23.8724ZM103.113 11.5382C102.97 11.2397 102.746 10.9884 102.467 10.8141C102.182 10.6433 101.855 10.5562 101.524 10.5627C101.085 10.5353 100.652 10.6788 100.314 10.9638C99.9769 11.2488 99.7605 11.6536 99.7097 12.0948C99.4827 11.7339 99.1863 11.4226 98.8381 11.1791C98.4786 10.9143 98.0778 10.712 97.6522 10.5807C97.2344 10.4561 96.8012 10.3916 96.3655 10.3892C95.5131 10.3842 94.6724 10.5897 93.9167 10.9876C93.1715 11.3718 92.5179 11.915 92.0015 12.5795C91.4736 13.2681 91.072 14.0463 90.8156 14.8776C90.5371 15.7372 90.397 16.6364 90.4005 17.5407C90.3967 18.4384 90.5144 19.3324 90.7504 20.1979C90.9661 21.0122 91.3257 21.7806 91.8117 22.466C92.2743 23.1226 92.8837 23.6598 93.5906 24.034C94.3471 24.4201 95.1859 24.6133 96.0335 24.5965C96.7408 24.6463 97.4489 24.5124 98.0904 24.2076C98.7319 23.9027 99.2853 23.437 99.6979 22.855H99.7512V23.7288C99.7678 24.275 99.63 24.8147 99.354 25.2848C99.0946 25.7204 98.7128 26.0683 98.257 26.2842C97.7596 26.5175 97.2163 26.6341 96.6679 26.6253C96.1701 26.6397 95.6728 26.5813 95.1915 26.4518C94.8239 26.3321 94.3021 26.1406 93.6143 25.8533C93.1398 25.6365 92.6328 25.501 92.1141 25.4524C91.9186 25.4634 91.7279 25.5179 91.5556 25.6121C91.3834 25.7062 91.234 25.8376 91.118 25.9969C90.8357 26.2812 90.6669 26.6604 90.6436 27.0622C90.6614 27.3881 90.7668 27.703 90.9486 27.9729C91.1304 28.2428 91.3816 28.4577 91.6753 28.5943C92.4311 29.0364 93.2548 29.3479 94.1123 29.5159C94.8578 29.6902 95.6185 29.7904 96.3833 29.8151C97.6463 29.8405 98.8994 29.5851 100.054 29.067C101.085 28.5945 101.944 27.8103 102.514 26.8228C103.129 25.7131 103.433 24.4551 103.392 23.1842V12.5855C103.399 12.2163 103.318 11.8508 103.155 11.5203L103.113 11.5382ZM98.9626 20.168C98.7287 20.513 98.4117 20.7924 98.0414 20.9798C97.6711 21.1672 97.2597 21.2564 96.8458 21.2392C96.2872 21.2544 95.7412 21.07 95.3042 20.7186C94.8667 20.3593 94.5329 19.8881 94.3377 19.3541C94.1186 18.7546 94.0101 18.1198 94.0175 17.4809C94.0152 16.8775 94.1238 16.2789 94.3377 15.7154C94.5372 15.1739 94.8746 14.6949 95.316 14.327C95.7418 13.9604 96.2862 13.7645 96.8458 13.7764C97.4224 13.7605 97.9844 13.9609 98.423 14.339C98.8709 14.7266 99.2068 15.229 99.3955 15.7932C99.6005 16.3693 99.7068 16.9765 99.7097 17.5886C99.7349 18.5006 99.4733 19.3972 98.9626 20.15V20.168ZM118.055 11.227C117.854 10.7841 117.368 10.5627 116.597 10.5627C116.162 10.552 115.739 10.7057 115.411 10.9936C115.077 11.2669 114.863 11.663 114.818 12.0948C114.433 11.5455 113.909 11.1113 113.3 10.838C112.688 10.5535 112.022 10.4084 111.349 10.4131C110.272 10.4076 109.218 10.7355 108.331 11.3527C107.387 12.0007 106.632 12.8911 106.143 13.932C105.603 15.0498 105.329 16.2793 105.343 17.5228C105.322 18.7823 105.59 20.0295 106.125 21.1674C106.605 22.1926 107.354 23.066 108.29 23.6929C109.198 24.2937 110.263 24.6101 111.349 24.6025C112.019 24.6011 112.679 24.4456 113.28 24.148C113.881 23.8504 114.407 23.4185 114.818 22.885C114.908 23.319 115.113 23.7203 115.411 24.046C115.567 24.1838 115.748 24.2891 115.945 24.3559C116.141 24.4226 116.348 24.4495 116.555 24.435C117.326 24.435 117.812 24.2195 118.014 23.7767C118.228 23.2267 118.327 22.6377 118.304 22.0471V12.9446C118.327 12.3521 118.228 11.7613 118.014 11.2091L118.055 11.227ZM109.339 15.7334C109.533 15.179 109.874 14.6887 110.323 14.315C110.768 13.9537 111.324 13.7629 111.895 13.7764C112.456 13.7636 113.003 13.9595 113.43 14.327C113.87 14.7028 114.201 15.1905 114.391 15.7394C114.602 16.3138 114.709 16.9221 114.705 17.5348C114.725 18.4536 114.468 19.357 113.97 20.1261C113.75 20.4787 113.443 20.7674 113.08 20.9637C112.716 21.16 112.307 21.257 111.895 21.2452C111.325 21.261 110.768 21.0722 110.323 20.7126C109.882 20.3473 109.544 19.8702 109.345 19.3301C109.126 18.7574 109.016 18.1485 109.019 17.5348C109.018 16.9218 109.127 16.3137 109.339 15.7394V15.7334ZM121.554 23.8545C121.718 24.0406 121.922 24.1876 122.149 24.2849C122.377 24.3821 122.623 24.4273 122.87 24.417C123.199 24.4224 123.524 24.3354 123.807 24.1657C124.088 23.9916 124.314 23.7405 124.459 23.4415C124.62 23.1102 124.701 22.7452 124.696 22.3763V15.9728C124.686 15.5263 124.779 15.0835 124.969 14.6801C125.143 14.3097 125.421 13.9994 125.77 13.7884C126.145 13.5617 126.577 13.4475 127.015 13.4593C127.329 13.4455 127.643 13.4951 127.938 13.605C128.233 13.715 128.504 13.8831 128.734 14.0996C128.968 14.3482 129.147 14.6431 129.262 14.9656C129.376 15.2881 129.423 15.6311 129.398 15.9728V22.3763C129.375 22.9146 129.553 23.4422 129.896 23.8545C130.061 24.0406 130.264 24.1876 130.492 24.2849C130.72 24.3821 130.966 24.4273 131.213 24.417C131.542 24.4224 131.866 24.3354 132.15 24.1657C132.431 23.9916 132.657 23.7405 132.802 23.4415C132.965 23.1112 133.047 22.7455 133.039 22.3763V15.3384C133.064 14.4139 132.841 13.4998 132.393 12.6932C131.976 11.9628 131.358 11.3702 130.614 10.9876C129.819 10.5817 128.938 10.3763 128.046 10.3892C126.418 10.3892 125.25 10.8919 124.542 11.8973C124.494 11.5071 124.301 11.1499 124.003 10.8979C123.677 10.6468 123.274 10.5196 122.864 10.5388C122.617 10.5285 122.371 10.5737 122.143 10.6709C121.916 10.7682 121.712 10.9152 121.548 11.1013C121.205 11.5142 121.027 12.0414 121.05 12.5795V22.3703C121.026 22.9086 121.204 23.4362 121.548 23.8485L121.554 23.8545Z" fill="#DB3C8E"/>
<path d="M49.0789 15.6971C48.9511 19.5692 47.9363 23.3587 46.1142 26.7686C43.4596 31.7336 40.039 36.2405 35.9808 40.1202C33.309 42.7448 30.4208 45.1353 27.3475 47.2658C26.9977 47.5111 26.7902 47.5231 26.5115 47.2658C26.2328 47.0084 25.7407 46.6254 25.3553 46.3023C19.8172 41.6642 14.6349 36.6551 10.3894 30.9099C8.21843 28.1059 6.51233 24.9651 5.33754 21.6099C4.84112 20.2439 4.62305 18.7909 4.69641 17.3378C4.76977 15.8848 5.13305 14.4616 5.76446 13.1537C6.99185 10.6521 9.08494 8.96447 12.2868 8.40192C14.4853 8.04059 16.7353 8.1672 18.8803 8.77296C21.7152 9.52599 24.3261 10.9637 26.4878 12.9622C27.1222 13.5606 27.7152 14.1591 28.3318 14.7276C28.9485 15.2962 29.8438 15.6792 30.5435 15.2782C30.9346 15.0546 31.2678 14.7409 31.5159 14.3626C31.8209 13.8864 32.0791 13.3813 32.2868 12.8544C32.8204 11.6037 33.105 10.7718 33.5912 9.55693C34.1842 8.07874 34.6822 6.75018 35.8622 5.68493C36.6165 4.9784 37.543 4.48647 38.5472 4.25937C39.5514 4.03228 40.5973 4.07814 41.5782 4.39226C43.0095 4.72475 44.3444 5.38956 45.4766 6.3339C46.6088 7.27824 47.5073 8.47608 48.1005 9.83224C48.8574 11.6895 49.2054 13.6907 49.1204 15.6971L53.7868 13.5726C53.7868 10.8676 53.5141 8.64729 52.5476 6.48087C51.8753 4.84978 50.8002 3.4197 49.4249 2.32701C48.0496 1.23432 46.4198 0.515457 44.6911 0.238959C42.4142 -0.19193 39.9476 -0.173977 37.7715 1.43588C36.3268 2.46919 35.1857 3.87732 34.4688 5.51137C33.8106 6.94767 33.2829 8.19245 32.6307 9.83821C32.3926 10.5669 32.0806 11.2688 31.6997 11.9328C31.4805 12.2036 31.2203 12.4379 30.9289 12.627C30.5938 12.8953 30.1674 13.0193 29.7423 12.9723C29.3171 12.9252 28.9275 12.7109 28.6579 12.3757C27.9168 11.6635 27.1934 10.9334 26.4285 10.2392C23.8019 7.82819 20.6333 6.09873 17.1964 5.20016C14.599 4.46058 11.8721 4.30734 9.20945 4.75132C5.33161 5.43955 2.79975 7.47431 1.3174 10.5025C-0.301332 13.806 -0.34284 17.2352 0.795608 20.7302C2.10601 24.7518 4.35326 28.4323 6.96814 31.9752C12.103 38.9233 18.3763 44.9856 25.0825 50.5932C25.545 50.9822 26.0431 51.3413 26.4819 51.7901C26.8139 52.1133 27.0748 52.0953 27.4899 51.7901C31.21 49.2125 34.7088 46.3237 37.9493 43.1544C43.1613 38.0016 47.2882 32.6694 50.2055 26.996C52.3968 22.8652 53.6143 18.2798 53.7631 13.5965" fill="#DB3C8E"/>
</g>
<defs>
<clipPath id="clip0_1827_4797">
<rect width="166" height="52" fill="white"/>
</clipPath>
</defs>
</svg>
