<svg width="168" height="47" viewBox="0 0 168 47" fill="none" xmlns="http://www.w3.org/2000/svg">
<path d="M47.8169 8.54842V37.9865L62.9634 46.3643V0.63562L47.8169 8.54842Z" fill="#034949"/>
<path d="M0 16.7817H6.14698V18.7943L6.36651 18.868C7.501 17.4403 9.18365 16.4163 11.1595 16.4163H11.6722V22.1964H10.794C8.96548 22.1964 7.39192 22.7091 6.14698 23.5505V35.1135H0V16.7817Z" fill="#034949"/>
<path d="M17.6733 24.1354H24.0399C23.8203 22.0137 22.6858 21.3919 21.1859 21.3919C19.1365 21.3919 18.0756 22.2701 17.6733 24.1354ZM30.2236 25.709V27.9043H17.6365C18.0388 29.7343 19.4296 30.4297 22.4295 30.4665C24.3685 30.4665 26.2352 30.1011 27.8088 29.3688L28.8328 33.7595C26.857 34.894 24.6248 35.4422 22.4295 35.4422C15.5148 35.4422 11.3423 31.8573 11.3423 25.9653C11.3423 20.9529 14.7458 16.4885 20.9296 16.4163C26.3811 16.4163 30.2959 19.5988 30.2236 25.709Z" fill="#034949"/>
<path d="M32.7474 29.4056C34.3578 29.917 35.9313 30.247 37.614 30.247C38.9312 30.247 39.9198 29.9906 39.9198 29.2584C39.9198 28.6734 39.5161 28.1975 37.4681 27.7953C33.8819 27.1367 31.7588 25.3804 31.7588 22.416C31.7588 18.4275 35.345 16.4163 39.3334 16.4163C41.4197 16.4163 43.3587 16.8908 45.1518 17.5862L44.3827 22.3069C42.846 21.831 41.3092 21.4642 39.7357 21.4642C38.7116 21.4642 37.8335 21.7942 37.8335 22.416C37.8335 22.9287 38.0162 23.4782 40.3575 23.9173C43.87 24.5391 45.9931 25.9285 45.9931 29.1125C45.9931 33.3573 42.1151 35.3331 38.053 35.3331C35.8945 35.3331 33.8451 34.8572 31.9429 34.125L32.7474 29.4056Z" fill="#034949"/>
<path d="M72.3732 24.1354H78.7397C78.5201 22.0137 77.3856 21.3919 75.8857 21.3919C73.8363 21.3919 72.7754 22.2701 72.3732 24.1354ZM84.9235 25.709V27.9043H72.3363C72.7386 29.7343 74.1294 30.4297 77.1293 30.4665C79.0696 30.4665 80.935 30.1011 82.5086 29.3688L83.5326 33.7595C81.5568 34.894 79.326 35.4422 77.1293 35.4422C70.2146 35.4422 66.0435 31.8573 66.0435 25.9653C66.0435 20.9529 69.4456 16.4885 75.6294 16.4163C81.0809 16.4163 84.9971 19.5988 84.9235 25.709Z" fill="#034949"/>
<path d="M99.9621 28.1975V22.416C98.8999 21.7574 97.4368 21.3919 95.7174 21.3919C93.6311 21.3919 91.9116 23.2218 91.9116 25.9285C91.9116 28.6366 93.6311 30.4665 95.7174 30.4665C97.4736 30.4665 99.0826 29.8802 99.9621 28.1975ZM99.7781 17.953L99.9621 17.8426V16.7817H106.109V35.0767H99.9621V33.4295L99.7426 33.3573C98.6804 34.564 96.8518 35.4422 94.5829 35.4422C89.6426 35.4422 85.7646 31.2342 85.7646 25.9285C85.7646 20.6229 89.7885 16.4163 94.9483 16.4163C97.1805 16.4163 98.6804 17.038 99.7781 17.953Z" fill="#034949"/>
<path d="M109.913 29.4056C111.522 29.917 113.096 30.247 114.78 30.247C116.097 30.247 117.084 29.9906 117.084 29.2584C117.084 28.6734 116.682 28.1975 114.633 27.7953C111.048 27.1367 108.925 25.3804 108.925 22.416C108.925 18.4275 112.511 16.4163 116.499 16.4163C118.584 16.4163 120.525 16.8908 122.318 17.5862L121.549 22.3069C120.012 21.831 118.475 21.4642 116.902 21.4642C115.878 21.4642 115 21.7942 115 22.416C115 22.9287 115.182 23.4782 117.523 23.9173C121.036 24.5391 123.159 25.9285 123.159 29.1125C123.159 33.3573 119.28 35.3331 115.219 35.3331C113.059 35.3331 111.011 34.8572 109.108 34.125L109.913 29.4056Z" fill="#034949"/>
<path d="M125.975 16.7817H132.123V35.0767H125.975V16.7817ZM129.013 9.20703C131.537 9.20703 132.415 10.5611 132.415 11.8046C132.415 12.9391 131.537 14.3668 129.013 14.3668C126.707 14.3668 125.646 12.9391 125.646 11.8046C125.646 10.5611 126.707 9.20703 129.013 9.20703Z" fill="#034949"/>
<path d="M140.977 24.1354H147.343C147.124 22.0137 145.989 21.3919 144.489 21.3919C142.44 21.3919 141.379 22.2701 140.977 24.1354ZM153.527 25.709V27.9043H140.94C141.342 29.7343 142.733 30.4297 145.734 30.4665C147.673 30.4665 149.539 30.1011 151.112 29.3688L152.136 33.7595C150.16 34.894 147.928 35.4422 145.734 35.4422C138.818 35.4422 134.647 31.8573 134.647 25.9653C134.647 20.9529 138.049 16.4885 144.233 16.4163C149.686 16.4163 153.601 19.5988 153.527 25.709Z" fill="#034949"/>
<path d="M155.539 16.7817H161.687V18.7943L161.906 18.868C163.041 17.4403 164.724 16.4163 166.699 16.4163H167.212V22.1964H166.333C164.504 22.1964 162.93 22.7091 161.687 23.5505V35.1135H155.539V16.7817Z" fill="#034949"/>
<path d="M47 17.4908H49.5608V11.6356H55.7091V17.4908H59.9171V22.0642H55.7091V28.5412C55.7091 29.9675 56.5504 30.5893 57.794 30.5893C58.5631 30.5893 59.3308 30.4434 59.8803 30.2606L60.6125 35.2009C59.6239 35.6767 57.9781 35.9685 56.5873 35.9685C52.5252 35.9685 49.5608 33.4078 49.5608 28.9434V22.0642H47V17.4908Z" fill="#E3F5E9"/>
</svg>
